<svg width="189" height="191" viewBox="0 0 189 191" fill="none" xmlns="http://www.w3.org/2000/svg">
<path fill-rule="evenodd" clip-rule="evenodd" d="M72.7554 95.6444C72.7973 89.8498 75.1066 84.3069 79.1797 80.2244C83.2528 76.1419 88.7593 73.8508 94.4986 73.8508C100.238 73.8508 105.744 76.1419 109.818 80.2244C113.891 84.3069 116.2 89.8498 116.242 95.6444C116.2 101.439 113.891 106.982 109.818 111.064C105.744 115.147 100.238 117.438 94.4986 117.438C88.7593 117.438 83.2528 115.147 79.1797 111.064C75.1066 106.982 72.7973 101.439 72.7554 95.6444V95.6444Z" fill="#32E8FF"/>
<path fill-rule="evenodd" clip-rule="evenodd" d="M125.459 22.3599C125.459 19.4484 126.605 16.6562 128.644 14.5975C130.683 12.5388 133.448 11.3822 136.332 11.3822C139.216 11.3822 141.981 12.5388 144.02 14.5975C146.059 16.6562 147.204 19.4484 147.204 22.3599C147.204 25.2714 146.059 28.0636 144.02 30.1223C141.981 32.181 139.216 33.3376 136.332 33.3376C133.448 33.3376 130.683 32.181 128.644 30.1223C126.605 28.0636 125.459 25.2714 125.459 22.3599V22.3599Z" fill="white"/>
<path fill-rule="evenodd" clip-rule="evenodd" d="M167.255 95.5398C167.255 92.6284 168.4 89.8361 170.439 87.7774C172.478 85.7187 175.244 84.5621 178.127 84.5621C181.011 84.5621 183.776 85.7187 185.815 87.7774C187.854 89.8361 189 92.6284 189 95.5398C189 98.4513 187.854 101.244 185.815 103.302C183.776 105.361 181.011 106.518 178.127 106.518C175.244 106.518 172.478 105.361 170.439 103.302C168.4 101.244 167.255 98.4513 167.255 95.5398V95.5398Z" fill="white"/>
<path fill-rule="evenodd" clip-rule="evenodd" d="M125.439 168.727C125.439 165.815 126.585 163.023 128.624 160.964C130.663 158.906 133.428 157.749 136.312 157.749C139.195 157.749 141.961 158.906 144 160.964C146.039 163.023 147.184 165.815 147.184 168.727C147.184 171.638 146.039 174.43 144 176.489C141.961 178.548 139.195 179.704 136.312 179.704C133.428 179.704 130.663 178.548 128.624 176.489C126.585 174.43 125.439 171.638 125.439 168.727V168.727Z" fill="white"/>
<path fill-rule="evenodd" clip-rule="evenodd" d="M41.762 168.711C41.762 165.799 42.9075 163.007 44.9465 160.948C46.9855 158.89 49.751 157.733 52.6346 157.733C55.5182 157.733 58.2837 158.89 60.3227 160.948C62.3617 163.007 63.5072 165.799 63.5072 168.711C63.5072 171.622 62.3617 174.414 60.3227 176.473C58.2837 178.532 55.5182 179.688 52.6346 179.688C49.751 179.688 46.9855 178.532 44.9465 176.473C42.9075 174.414 41.762 171.622 41.762 168.711V168.711Z" fill="white"/>
<path fill-rule="evenodd" clip-rule="evenodd" d="M83.6272 154.22C83.6272 151.308 84.7727 148.516 86.8117 146.457C88.8507 144.398 91.6162 143.242 94.4998 143.242C97.3834 143.242 100.149 144.398 102.188 146.457C104.227 148.516 105.372 151.308 105.372 154.22C105.372 157.131 104.227 159.923 102.188 161.982C100.149 164.041 97.3834 165.197 94.4998 165.197C91.6162 165.197 88.8507 164.041 86.8117 161.982C84.7727 159.923 83.6272 157.131 83.6272 154.22V154.22Z" fill="white"/>
<path fill-rule="evenodd" clip-rule="evenodd" d="M133.949 124.928C133.949 122.016 135.095 119.224 137.134 117.165C139.173 115.106 141.938 113.95 144.822 113.95C147.705 113.95 150.471 115.106 152.51 117.165C154.549 119.224 155.694 122.016 155.694 124.928C155.694 127.839 154.549 130.631 152.51 132.69C150.471 134.749 147.705 135.905 144.822 135.905C141.938 135.905 139.173 134.749 137.134 132.69C135.095 130.631 133.949 127.839 133.949 124.928V124.928Z" fill="white"/>
<path fill-rule="evenodd" clip-rule="evenodd" d="M133.881 66.2304C133.881 63.3189 135.027 60.5267 137.066 58.468C139.105 56.4093 141.87 55.2527 144.754 55.2527C147.638 55.2527 150.403 56.4093 152.442 58.468C154.481 60.5267 155.627 63.3189 155.627 66.2304C155.627 69.1419 154.481 71.9341 152.442 73.9928C150.403 76.0515 147.638 77.2081 144.754 77.2081C141.87 77.2081 139.105 76.0515 137.066 73.9928C135.027 71.9341 133.881 69.1419 133.881 66.2304V66.2304Z" fill="white"/>
<path fill-rule="evenodd" clip-rule="evenodd" d="M0 95.6778C0 92.7663 1.1455 89.9741 3.18451 87.9154C5.22351 85.8567 7.989 84.7001 10.8726 84.7001C13.7562 84.7001 16.5217 85.8567 18.5607 87.9154C20.5997 89.9741 21.7452 92.7663 21.7452 95.6778C21.7452 98.5892 20.5997 101.381 18.5607 103.44C16.5217 105.499 13.7562 106.655 10.8726 106.655C7.989 106.655 5.22351 105.499 3.18451 103.44C1.1455 101.381 0 98.5892 0 95.6778H0Z" fill="white"/>
<path fill-rule="evenodd" clip-rule="evenodd" d="M83.7104 37.0315C83.7104 34.1201 84.856 31.3278 86.895 29.2691C88.934 27.2104 91.6995 26.0538 94.583 26.0538C97.4666 26.0538 100.232 27.2104 102.271 29.2691C104.31 31.3278 105.456 34.1201 105.456 37.0315C105.456 39.943 104.31 42.7352 102.271 44.7939C100.232 46.8526 97.4666 48.0092 94.583 48.0092C91.6995 48.0092 88.934 46.8526 86.895 44.7939C84.856 42.7352 83.7104 39.943 83.7104 37.0315V37.0315Z" fill="white"/>
<path fill-rule="evenodd" clip-rule="evenodd" d="M33.3062 66.264C33.3062 63.3525 34.4517 60.5603 36.4907 58.5016C38.5297 56.4429 41.2952 55.2863 44.1787 55.2863C47.0623 55.2863 49.8278 56.4429 51.8668 58.5016C53.9058 60.5603 55.0513 63.3525 55.0513 66.264C55.0513 69.1755 53.9058 71.9677 51.8668 74.0264C49.8278 76.0851 47.0623 77.2417 44.1787 77.2417C41.2952 77.2417 38.5297 76.0851 36.4907 74.0264C34.4517 71.9677 33.3062 69.1755 33.3062 66.264V66.264Z" fill="white"/>
<path fill-rule="evenodd" clip-rule="evenodd" d="M33.4373 124.864C33.4373 121.953 34.5828 119.16 36.6218 117.102C38.6608 115.043 41.4263 113.886 44.3099 113.886C47.1934 113.886 49.9589 115.043 51.9979 117.102C54.0369 119.16 55.1824 121.953 55.1824 124.864C55.1824 127.775 54.0369 130.568 51.9979 132.626C49.9589 134.685 47.1934 135.842 44.3099 135.842C41.4263 135.842 38.6608 134.685 36.6218 132.626C34.5828 130.568 33.4373 127.775 33.4373 124.864V124.864Z" fill="white"/>
<path fill-rule="evenodd" clip-rule="evenodd" d="M41.8083 22.3939C41.8083 19.4825 42.9539 16.6902 44.9929 14.6315C47.0319 12.5728 49.7973 11.4162 52.6809 11.4162C55.5645 11.4162 58.33 12.5728 60.369 14.6315C62.408 16.6902 63.5535 19.4825 63.5535 22.3939C63.5535 25.3054 62.408 28.0976 60.369 30.1563C58.33 32.215 55.5645 33.3716 52.6809 33.3716C49.7973 33.3716 47.0319 32.215 44.9929 30.1563C42.9539 28.0976 41.8083 25.3054 41.8083 22.3939V22.3939Z" fill="white"/>
<path fill-rule="evenodd" clip-rule="evenodd" d="M87.5107 7.05666C87.5107 5.18512 88.247 3.39023 89.5577 2.06685C90.8685 0.743464 92.6462 0 94.4998 0C96.3534 0 98.1311 0.743464 99.4418 2.06685C100.753 3.39023 101.489 5.18512 101.489 7.05666C101.489 8.92821 100.753 10.7231 99.4418 12.0465C98.1311 13.3699 96.3534 14.1133 94.4998 14.1133C92.6462 14.1133 90.8685 13.3699 89.5577 12.0465C88.247 10.7231 87.5107 8.92821 87.5107 7.05666V7.05666Z" fill="#EED8FF" fill-opacity="0.83"/>
<path fill-rule="evenodd" clip-rule="evenodd" d="M163.762 51.3465C163.762 49.4749 164.499 47.68 165.809 46.3566C167.12 45.0333 168.898 44.2898 170.751 44.2898C172.605 44.2898 174.383 45.0333 175.693 46.3566C177.004 47.68 177.741 49.4749 177.741 51.3465C177.741 53.218 177.004 55.0129 175.693 56.3363C174.383 57.6597 172.605 58.4031 170.751 58.4031C168.898 58.4031 167.12 57.6597 165.809 56.3363C164.499 55.0129 163.762 53.218 163.762 51.3465V51.3465Z" fill="#EED8FF" fill-opacity="0.83"/>
<path fill-rule="evenodd" clip-rule="evenodd" d="M163.778 139.743C163.778 137.871 164.515 136.076 165.825 134.753C167.136 133.429 168.914 132.686 170.767 132.686C172.621 132.686 174.399 133.429 175.709 134.753C177.02 136.076 177.757 137.871 177.757 139.743C177.757 141.614 177.02 143.409 175.709 144.732C174.399 146.056 172.621 146.799 170.767 146.799C168.914 146.799 167.136 146.056 165.825 144.732C164.515 143.409 163.778 141.614 163.778 139.743V139.743Z" fill="#EED8FF" fill-opacity="0.83"/>
<path fill-rule="evenodd" clip-rule="evenodd" d="M87.5107 183.943C87.5107 182.072 88.247 180.277 89.5577 178.954C90.8685 177.63 92.6462 176.887 94.4998 176.887C96.3534 176.887 98.1311 177.63 99.4418 178.954C100.753 180.277 101.489 182.072 101.489 183.943C101.489 185.815 100.753 187.61 99.4418 188.933C98.1311 190.257 96.3534 191 94.4998 191C92.6462 191 90.8685 190.257 89.5577 188.933C88.247 187.61 87.5107 185.815 87.5107 183.943V183.943Z" fill="#EED8FF" fill-opacity="0.83"/>
<path fill-rule="evenodd" clip-rule="evenodd" d="M11.7173 139.701C11.7173 137.829 12.4536 136.034 13.7643 134.711C15.0751 133.388 16.8528 132.644 18.7064 132.644C20.56 132.644 22.3377 133.388 23.6484 134.711C24.9592 136.034 25.6955 137.829 25.6955 139.701C25.6955 141.572 24.9592 143.367 23.6484 144.691C22.3377 146.014 20.56 146.758 18.7064 146.758C16.8528 146.758 15.0751 146.014 13.7643 144.691C12.4536 143.367 11.7173 141.572 11.7173 139.701V139.701Z" fill="#EED8FF" fill-opacity="0.83"/>
<path fill-rule="evenodd" clip-rule="evenodd" d="M11.7507 51.4125C11.7507 49.541 12.4871 47.7461 13.7978 46.4227C15.1085 45.0993 16.8862 44.3559 18.7398 44.3559C20.5935 44.3559 22.3712 45.0993 23.6819 46.4227C24.9926 47.7461 25.7289 49.541 25.7289 51.4125C25.7289 53.2841 24.9926 55.079 23.6819 56.4024C22.3712 57.7257 20.5935 58.4692 18.7398 58.4692C16.8862 58.4692 15.1085 57.7257 13.7978 56.4024C12.4871 55.079 11.7507 53.2841 11.7507 51.4125V51.4125Z" fill="#EED8FF" fill-opacity="0.83"/>
<path fill-rule="evenodd" clip-rule="evenodd" d="M60.4238 47.78C60.4238 45.9084 61.1601 44.1136 62.4708 42.7902C63.7815 41.4668 65.5592 40.7233 67.4129 40.7233C69.2665 40.7233 71.0442 41.4668 72.3549 42.7902C73.6656 44.1136 74.402 45.9084 74.402 47.78C74.402 49.6515 73.6656 51.4464 72.3549 52.7698C71.0442 54.0932 69.2665 54.8367 67.4129 54.8367C65.5592 54.8367 63.7815 54.0932 62.4708 52.7698C61.1601 51.4464 60.4238 49.6515 60.4238 47.78V47.78Z" fill="#2EAFEA"/>
<path fill-rule="evenodd" clip-rule="evenodd" d="M115.094 47.8078C115.094 45.9362 115.83 44.1413 117.141 42.8179C118.452 41.4946 120.229 40.7511 122.083 40.7511C123.937 40.7511 125.714 41.4946 127.025 42.8179C128.336 44.1413 129.072 45.9362 129.072 47.8078C129.072 49.6793 128.336 51.4742 127.025 52.7976C125.714 54.121 123.937 54.8644 122.083 54.8644C120.229 54.8644 118.452 54.121 117.141 52.7976C115.83 51.4742 115.094 49.6793 115.094 47.8078V47.8078Z" fill="#2EAFEA"/>
<path fill-rule="evenodd" clip-rule="evenodd" d="M142.229 95.6458C142.229 93.7742 142.965 91.9793 144.276 90.656C145.586 89.3326 147.364 88.5891 149.218 88.5891C151.071 88.5891 152.849 89.3326 154.16 90.656C155.471 91.9793 156.207 93.7742 156.207 95.6458C156.207 97.5173 155.471 99.3122 154.16 100.636C152.849 101.959 151.071 102.702 149.218 102.702C147.364 102.702 145.586 101.959 144.276 100.636C142.965 99.3122 142.229 97.5173 142.229 95.6458V95.6458Z" fill="#2EAFEA"/>
<path fill-rule="evenodd" clip-rule="evenodd" d="M115.202 143.249C115.202 141.377 115.939 139.582 117.25 138.259C118.56 136.935 120.338 136.192 122.192 136.192C124.045 136.192 125.823 136.935 127.134 138.259C128.444 139.582 129.181 141.377 129.181 143.249C129.181 145.12 128.444 146.915 127.134 148.238C125.823 149.562 124.045 150.305 122.192 150.305C120.338 150.305 118.56 149.562 117.25 148.238C115.939 146.915 115.202 145.12 115.202 143.249V143.249Z" fill="#2EAFEA"/>
<path fill-rule="evenodd" clip-rule="evenodd" d="M60.4238 143.249C60.4238 141.377 61.1601 139.582 62.4708 138.259C63.7815 136.935 65.5592 136.192 67.4129 136.192C69.2665 136.192 71.0442 136.935 72.3549 138.259C73.6656 139.582 74.402 141.377 74.402 143.249C74.402 145.12 73.6656 146.915 72.3549 148.238C71.0442 149.562 69.2665 150.305 67.4129 150.305C65.5592 150.305 63.7815 149.562 62.4708 148.238C61.1601 146.915 60.4238 145.12 60.4238 143.249V143.249Z" fill="#2EAFEA"/>
<path fill-rule="evenodd" clip-rule="evenodd" d="M33.2886 95.6458C33.2886 93.7742 34.025 91.9793 35.3357 90.656C36.6464 89.3326 38.4241 88.5891 40.2777 88.5891C42.1314 88.5891 43.9091 89.3326 45.2198 90.656C46.5305 91.9793 47.2668 93.7742 47.2668 95.6458C47.2668 97.5173 46.5305 99.3122 45.2198 100.636C43.9091 101.959 42.1314 102.702 40.2777 102.702C38.4241 102.702 36.6464 101.959 35.3357 100.636C34.025 99.3122 33.2886 97.5173 33.2886 95.6458V95.6458Z" fill="#2EAFEA"/>
<path fill-rule="evenodd" clip-rule="evenodd" d="M135.892 44.3153C135.892 43.1091 136.367 41.9522 137.212 41.0993C138.056 40.2464 139.202 39.7672 140.397 39.7672C141.592 39.7672 142.737 40.2464 143.582 41.0993C144.427 41.9522 144.902 43.1091 144.902 44.3153C144.902 45.5216 144.427 46.6784 143.582 47.5314C142.737 48.3843 141.592 48.8635 140.397 48.8635C139.202 48.8635 138.056 48.3843 137.212 47.5314C136.367 46.6784 135.892 45.5216 135.892 44.3153V44.3153Z" fill="#75E7F4"/>
<path fill-rule="evenodd" clip-rule="evenodd" d="M111.077 30.1813C111.077 28.9751 111.552 27.8182 112.396 26.9653C113.241 26.1124 114.387 25.6332 115.582 25.6332C116.776 25.6332 117.922 26.1124 118.767 26.9653C119.612 27.8182 120.086 28.9751 120.086 30.1813C120.086 31.3876 119.612 32.5444 118.767 33.3974C117.922 34.2503 116.776 34.7295 115.582 34.7295C114.387 34.7295 113.241 34.2503 112.396 33.3974C111.552 32.5444 111.077 31.3876 111.077 30.1813V30.1813Z" fill="#75E7F4"/>
<path fill-rule="evenodd" clip-rule="evenodd" d="M68.9905 29.9723C68.9905 28.766 69.4651 27.6092 70.3099 26.7562C71.1547 25.9033 72.3005 25.4241 73.4952 25.4241C74.6899 25.4241 75.8356 25.9033 76.6804 26.7562C77.5252 27.6092 77.9998 28.766 77.9998 29.9723C77.9998 31.1785 77.5252 32.3353 76.6804 33.1883C75.8356 34.0412 74.6899 34.5204 73.4952 34.5204C72.3005 34.5204 71.1547 34.0412 70.3099 33.1883C69.4651 32.3353 68.9905 31.1785 68.9905 29.9723V29.9723Z" fill="#75E7F4"/>
<path fill-rule="evenodd" clip-rule="evenodd" d="M44.5632 44.34C44.5632 43.1337 45.0378 41.9769 45.8825 41.124C46.7273 40.271 47.8731 39.7918 49.0678 39.7918C50.2625 39.7918 51.4082 40.271 52.253 41.124C53.0978 41.9769 53.5724 43.1337 53.5724 44.34C53.5724 45.5462 53.0978 46.7031 52.253 47.556C51.4082 48.409 50.2625 48.8881 49.0678 48.8881C47.8731 48.8881 46.7273 48.409 45.8825 47.556C45.0378 46.7031 44.5632 45.5462 44.5632 44.34V44.34Z" fill="#75E7F4"/>
<path fill-rule="evenodd" clip-rule="evenodd" d="M23.3727 81.3777C23.3727 80.1715 23.8473 79.0146 24.692 78.1617C25.5368 77.3087 26.6826 76.8296 27.8773 76.8296C29.072 76.8296 30.2177 77.3087 31.0625 78.1617C31.9073 79.0146 32.3819 80.1715 32.3819 81.3777C32.3819 82.5839 31.9073 83.7408 31.0625 84.5937C30.2177 85.4467 29.072 85.9258 27.8773 85.9258C26.6826 85.9258 25.5368 85.4467 24.692 84.5937C23.8473 83.7408 23.3727 82.5839 23.3727 81.3777V81.3777Z" fill="#75E7F4"/>
<path fill-rule="evenodd" clip-rule="evenodd" d="M23.5217 109.724C23.5217 108.518 23.9963 107.361 24.841 106.508C25.6858 105.655 26.8316 105.176 28.0263 105.176C29.221 105.176 30.3667 105.655 31.2115 106.508C32.0563 107.361 32.5309 108.518 32.5309 109.724C32.5309 110.931 32.0563 112.088 31.2115 112.94C30.3667 113.793 29.221 114.273 28.0263 114.273C26.8316 114.273 25.6858 113.793 24.841 112.94C23.9963 112.088 23.5217 110.931 23.5217 109.724V109.724Z" fill="#75E7F4"/>
<path fill-rule="evenodd" clip-rule="evenodd" d="M44.3741 146.717C44.3741 145.51 44.8487 144.354 45.6935 143.501C46.5383 142.648 47.6841 142.169 48.8788 142.169C50.0735 142.169 51.2192 142.648 52.064 143.501C52.9088 144.354 53.3834 145.51 53.3834 146.717C53.3834 147.923 52.9088 149.08 52.064 149.933C51.2192 150.786 50.0735 151.265 48.8788 151.265C47.6841 151.265 46.5383 150.786 45.6935 149.933C44.8487 149.08 44.3741 147.923 44.3741 146.717V146.717Z" fill="#75E7F4"/>
<path fill-rule="evenodd" clip-rule="evenodd" d="M68.9124 161.04C68.9124 159.834 69.3869 158.677 70.2317 157.824C71.0765 156.971 72.2223 156.492 73.417 156.492C74.6117 156.492 75.7574 156.971 76.6022 157.824C77.447 158.677 77.9216 159.834 77.9216 161.04C77.9216 162.246 77.447 163.403 76.6022 164.256C75.7574 165.109 74.6117 165.588 73.417 165.588C72.2223 165.588 71.0765 165.109 70.2317 164.256C69.3869 163.403 68.9124 162.246 68.9124 161.04V161.04Z" fill="#75E7F4"/>
<path fill-rule="evenodd" clip-rule="evenodd" d="M111.124 160.846C111.124 159.639 111.599 158.483 112.444 157.63C113.288 156.777 114.434 156.298 115.629 156.298C116.823 156.298 117.969 156.777 118.814 157.63C119.659 158.483 120.133 159.639 120.133 160.846C120.133 162.052 119.659 163.209 118.814 164.062C117.969 164.915 116.823 165.394 115.629 165.394C114.434 165.394 113.288 164.915 112.444 164.062C111.599 163.209 111.124 162.052 111.124 160.846V160.846Z" fill="#75E7F4"/>
<path fill-rule="evenodd" clip-rule="evenodd" d="M135.99 146.8C135.99 145.594 136.465 144.437 137.31 143.584C138.154 142.731 139.3 142.252 140.495 142.252C141.69 142.252 142.835 142.731 143.68 143.584C144.525 144.437 145 145.594 145 146.8C145 148.006 144.525 149.163 143.68 150.016C142.835 150.869 141.69 151.348 140.495 151.348C139.3 151.348 138.154 150.869 137.31 150.016C136.465 149.163 135.99 148.006 135.99 146.8V146.8Z" fill="#75E7F4"/>
<path fill-rule="evenodd" clip-rule="evenodd" d="M156.642 109.927C156.642 108.721 157.117 107.564 157.962 106.711C158.807 105.858 159.952 105.379 161.147 105.379C162.342 105.379 163.488 105.858 164.332 106.711C165.177 107.564 165.652 108.721 165.652 109.927C165.652 111.133 165.177 112.29 164.332 113.143C163.488 113.996 162.342 114.475 161.147 114.475C159.952 114.475 158.807 113.996 157.962 113.143C157.117 112.29 156.642 111.133 156.642 109.927V109.927Z" fill="#75E7F4"/>
<path fill-rule="evenodd" clip-rule="evenodd" d="M156.718 81.1494C156.718 79.9432 157.193 78.7863 158.038 77.9334C158.882 77.0804 160.028 76.6013 161.223 76.6013C162.418 76.6013 163.563 77.0804 164.408 77.9334C165.253 78.7863 165.727 79.9432 165.727 81.1494C165.727 82.3557 165.253 83.5125 164.408 84.3654C163.563 85.2184 162.418 85.6976 161.223 85.6976C160.028 85.6976 158.882 85.2184 158.038 84.3654C157.193 83.5125 156.718 82.3557 156.718 81.1494V81.1494Z" fill="#75E7F4"/>
</svg>
